<?xml version="1.0" encoding="UTF-8"?>
<svg width="662px" height="604px" viewBox="0 0 662 604" version="1.1" xmlns="http://www.w3.org/2000/svg" xmlns:xlink="http://www.w3.org/1999/xlink">
    <!-- Generator: sketchtool 53.1 (72631) - https://sketchapp.com -->
    <title>39D84972-67FB-4F34-86CD-79617C5B4A8E</title>
    <desc>Created with sketchtool.</desc>
    <g id="🖥-Desktop" stroke="none" stroke-width="1" fill="none" fill-rule="evenodd">
        <g id="404" transform="translate(0.000000, -476.000000)" stroke="#F1F1F1" stroke-width="0.5">
            <g id="logo_lines" transform="translate(-98.000000, 477.000000)">
                <polyline id="Path" points="721 670 573 536 642.613076 646.085599"></polyline>
                <polyline id="Path" points="721 670 673.520127 490 573 534.990915"></polyline>
                <polyline id="Path" points="674 490 702.302283 498.831012 732 508.098122 721.051203 670"></polyline>
                <path d="M660,386 L732,509" id="Path"></path>
                <path d="M491,487 L536,514" id="Path"></path>
                <polyline id="Path" points="509 520 503.850435 647 488 529.766428"></polyline>
                <polyline id="Path" points="573 536 579.067885 650 601 580.968481"></polyline>
                <polyline id="Path" points="509.115142 520 573 535.342037 504 647"></polyline>
                <polygon id="Path" points="509 520.132548 466 505 488.18771 530"></polygon>
                <path d="M491,486 L509,520" id="Path"></path>
                <polygon id="Path" points="270 507.486264 384.280406 565 491 486"></polygon>
                <path d="M226,487 L197,590" id="Path"></path>
                <polygon id="Path" points="335 339 226 487.241173 270.030455 508"></polygon>
                <polyline id="Path" points="334 339 144 301 314.558308 306.622824"></polyline>
                <polygon id="Path" points="75.7992832 575 73 397.671703 144 301"></polygon>
                <polyline id="Path" points="76 575 226 487.407157 144.03675 301"></polyline>
                <polygon id="Path" points="76 575 85.6963819 730 173 640.360571"></polygon>
                <polyline id="Path" points="384 565 229 552.632075 269.32904 508"></polyline>
                <polyline id="Path" points="229 554 196.504836 590.885965 173 641 220.009671 617.342105"></polyline>
                <polyline id="Path" points="256.661932 556 220 617 309 560.160735"></polyline>
                <path d="M273,648 L310,560" id="Path"></path>
                <polygon id="Path" points="674 491 640.347479 213 520 264.041193"></polygon>
                <polyline id="Path" points="647 276.5072 709.305981 292 725 269"></polyline>
                <polyline id="Path" points="599 185 639.960689 213.787538 726 269"></polyline>
                <polyline id="Path" points="640 214 645.573062 259.296248 726 269"></polyline>
                <polyline id="Path" points="725 269 751 231.846756 727.8 204"></polyline>
                <polyline id="Path" points="728 203 746.533013 195.597529 758.665066 179.505202 759 148"></polyline>
                <polyline id="Path" points="439 147 315 306.939348 334.47587 339"></polyline>
                <polyline id="Path" points="519 264.8953 478.782609 194 334 339"></polyline>
                <polygon id="Path" points="334 338.373981 490.811594 486 519 264"></polygon>
                <polyline id="Path" points="573 536 536.67657 514.264938 520 265"></polyline>
                <polyline id="Path" points="640 214 479 193.421717 599.269863 185"></polyline>
                <polygon id="Path" points="690 120.268714 589 90 598.771841 185"></polygon>
                <polyline id="Path" points="690 120.52302 725.810565 269 730 194.76151 702.568306 63"></polyline>
                <polyline id="Path" points="730.144444 195 759 148.193164 741.614074 115.359063 710 100"></polyline>
                <polygon id="Path" points="641 41 690.469244 121 703 63.4101864"></polygon>
                <polygon id="Path" points="522 6 589.994825 90 641 40.5606191"></polygon>
                <polyline id="Path" points="522 5.96696429 584.090107 0 641 41"></polyline>
                <polyline id="Path" points="521.9503 6 439 147 590 89.9646697"></polyline>
                <polyline id="Path" points="590 90 479.387515 193 439 147.40388"></polyline>
            </g>
        </g>
    </g>
</svg>