<svg xmlns="http://www.w3.org/2000/svg" width="282" height="316" viewBox="0 0 282 316">
    <path fill="#000" fill-opacity=".08" fill-rule="nonzero" d="M0 0h169v129.73c0 47.762-9.972 85.519-29.915 113.272C119.142 270.756 85.083 295.088 36.908 316L0 247.069c30.045-13.942 50.7-27.818 61.967-41.63 11.266-13.812 17.547-30.142 18.842-48.988H0V0zm195 0h169v129.73c0 47.762-9.972 85.519-29.915 113.272-19.943 27.754-54.002 52.086-102.177 72.998L195 247.069c30.045-13.942 50.7-27.818 61.967-41.63 11.266-13.812 17.547-30.142 18.842-48.988H195V0z"/>
</svg>
