<svg xmlns="http://www.w3.org/2000/svg" width="84" height="19" viewBox="0 0 84 19">
    <path fill="#FFF" fill-rule="nonzero" d="M3.623 12.375V18H.928V.187h2.695v6.348L6.885.187h2.87L6.085 7.473 10.381 18H7.227l-2.813-7.217-.791 1.592zM16.475-.027c1.185 0 2.192.416 3.022 1.25.83.833 1.245 1.839 1.245 3.017v9.717c0 1.185-.416 2.192-1.25 3.022-.833.83-1.839 1.246-3.017 1.246-1.179 0-2.18-.417-3.003-1.25-.824-.834-1.236-1.84-1.236-3.018V4.24c0-1.185.417-2.192 1.25-3.022.834-.83 1.83-1.245 2.989-1.245zm1.464 4.209c0-.43-.148-.793-.444-1.09a1.48 1.48 0 0 0-1.089-.444c-.423 0-.786.149-1.089.445-.302.296-.454.659-.454 1.089v9.755c0 .424.152.785.454 1.084.303.3.666.45 1.09.45.429 0 .792-.15 1.088-.45.296-.299.444-.66.444-1.084V4.182zM25.605.187L29.16 12.15V.187h2.686V18h-2.881L25.264 6.594V18h-2.676V.187h3.017zm16.592 13.77c0 .768-.189 1.481-.566 2.139.234.273.573.41 1.015.41v2.5c-1.34 0-2.259-.423-2.753-1.27a3.97 3.97 0 0 1-1.944.489c-1.185 0-2.19-.417-3.017-1.25-.827-.834-1.24-1.84-1.24-3.018V4.24c0-1.185.416-2.192 1.25-3.022.833-.83 1.835-1.245 3.007-1.245 1.185 0 2.19.42 3.013 1.26.823.84 1.235 1.842 1.235 3.007v9.717zm-2.783-9.775c0-.43-.151-.793-.454-1.09a1.513 1.513 0 0 0-1.099-.444c-.423 0-.784.149-1.084.445-.3.296-.449.659-.449 1.089v9.755c0 .424.15.785.45 1.084.299.3.66.45 1.083.45.43 0 .796-.15 1.099-.45.303-.299.454-.66.454-1.084V4.182zm9.326 14.043c-1.178 0-2.18-.412-3.003-1.236-.823-.823-1.235-1.821-1.235-2.993V.187h2.627v13.78c0 .423.151.784.454 1.084.303.3.666.449 1.089.449.43 0 .793-.15 1.089-.45.296-.299.444-.66.444-1.083V.187h2.803v13.81c0 1.19-.417 2.193-1.25 3.007-.834.814-1.84 1.22-3.018 1.22zM54.854 18V.187h7.636v2.686h-4.96v4.873h3.622v2.695H57.53v4.873h4.961V18h-7.636zm18.369-4.424c.02 1.244-.303 2.305-.967 3.184-.436.599-1.052 1.019-1.846 1.26-.43.136-.928.205-1.494.205-1.055 0-1.927-.26-2.617-.782-.573-.43-1.029-1.01-1.367-1.743-.339-.732-.534-1.577-.586-2.534l2.549-.176c.117 1.035.393 1.784.83 2.246.319.352.686.518 1.103.498.586-.02 1.055-.306 1.406-.859.183-.28.274-.674.274-1.182 0-.748-.335-1.487-1.006-2.216-.534-.502-1.331-1.254-2.393-2.256-.892-.86-1.52-1.631-1.884-2.315a5.364 5.364 0 0 1-.596-2.5c0-1.62.544-2.848 1.63-3.681.671-.502 1.505-.752 2.5-.752.958 0 1.778.214 2.462.644.527.332.953.796 1.279 1.392.326.595.524 1.28.596 2.055l-2.578.47c-.072-.73-.28-1.296-.625-1.7-.248-.3-.603-.45-1.065-.45-.488 0-.863.219-1.123.655-.208.352-.312.788-.312 1.309 0 .813.351 1.644 1.054 2.49.267.319.664.697 1.192 1.133.625.52 1.038.885 1.24 1.093.657.665 1.169 1.319 1.533 1.963.17.3.306.58.41.84.254.632.388 1.201.4 1.71zM77.92 2.873h-2.852V.187h8.38v2.686h-2.843V18H77.92V2.873z"/>
</svg>
