<svg xmlns="http://www.w3.org/2000/svg" width="85" height="19" viewBox="0 0 85 19">
    <path fill="#FFF" fill-rule="nonzero" d="M2.76 11.782v5.344H0V.204h2.76v6.03L6.1.204h2.94L5.28 7.125l4.4 10.001H6.45L3.57 10.27l-.81 1.512zM15.921 0c1.214 0 2.246.396 3.096 1.188.85.791 1.275 1.747 1.275 2.866v9.231c0 1.126-.427 2.083-1.28 2.871-.854.79-1.884 1.183-3.09 1.183-1.207 0-2.232-.395-3.076-1.187-.843-.792-1.265-1.747-1.265-2.867v-9.23c0-1.126.427-2.084 1.28-2.872C13.715.394 14.735 0 15.921 0zm1.5 3.999c0-.409-.151-.753-.454-1.035a1.579 1.579 0 0 0-1.116-.422c-.433 0-.805.14-1.115.422-.31.282-.465.626-.465 1.035v9.268c0 .402.155.745.465 1.03.31.284.682.426 1.115.426.44 0 .812-.142 1.116-.427a1.36 1.36 0 0 0 .455-1.03V4zM25.273.204l3.64 11.365V.204h2.751v16.922h-2.95L24.923 6.29v10.836h-2.74V.204h3.09zm16.992 13.081c0 .73-.193 1.407-.58 2.032.24.26.587.39 1.04.39v2.375c-1.373 0-2.314-.402-2.82-1.207-.607.31-1.27.464-1.99.464-1.214 0-2.244-.395-3.09-1.187-.847-.792-1.27-1.747-1.27-2.867v-9.23c0-1.126.426-2.084 1.28-2.872C35.686.394 36.713 0 37.913 0c1.213 0 2.241.399 3.085 1.197.843.798 1.265 1.75 1.265 2.857v9.231zM39.414 4c0-.409-.155-.753-.465-1.035a1.615 1.615 0 0 0-1.125-.422c-.434 0-.804.14-1.11.422A1.35 1.35 0 0 0 36.253 4v9.268c0 .402.153.745.46 1.03.306.284.676.426 1.11.426.44 0 .815-.142 1.125-.427.31-.284.465-.627.465-1.03V4zm9.55 13.34c-1.206 0-2.231-.39-3.075-1.173-.843-.783-1.265-1.73-1.265-2.844V.204h2.69v13.09c0 .402.155.746.465 1.03.31.285.682.427 1.116.427.44 0 .811-.142 1.115-.427a1.36 1.36 0 0 0 .455-1.03V.204h2.87v13.118c0 1.132-.427 2.085-1.28 2.858-.854.773-1.884 1.16-3.09 1.16zm6.261-.213V.204h7.82v2.551h-5.08v4.63h3.71v2.56h-3.71v4.63h5.08v2.551h-7.82zm18.812-4.203c.02 1.182-.31 2.19-.99 3.025-.447.569-1.077.968-1.89 1.197-.44.13-.95.194-1.53.194-1.08 0-1.974-.247-2.68-.742-.587-.408-1.054-.96-1.4-1.656-.348-.696-.548-1.498-.6-2.407l2.61-.167c.12.983.403 1.694.85 2.133.326.334.703.492 1.13.474.6-.019 1.08-.291 1.44-.817.186-.266.28-.64.28-1.122 0-.712-.344-1.414-1.03-2.106-.547-.477-1.364-1.19-2.45-2.143-.914-.817-1.557-1.55-1.93-2.2a4.799 4.799 0 0 1-.61-2.374c0-1.54.556-2.706 1.67-3.498.686-.476 1.54-.714 2.56-.714.98 0 1.82.204 2.52.612.54.316.977.756 1.31 1.322.333.566.537 1.217.61 1.953l-2.64.446c-.074-.693-.287-1.231-.64-1.615-.254-.284-.617-.426-1.09-.426-.5 0-.884.207-1.15.621-.214.334-.32.748-.32 1.243 0 .773.36 1.562 1.08 2.366.273.303.68.662 1.22 1.076.64.495 1.063.841 1.27 1.04.673.63 1.197 1.252 1.57 1.864.173.284.313.55.42.798.26.6.397 1.14.41 1.623zm4.81-10.168h-2.92V.205h8.581v2.55h-2.91v14.371h-2.75V2.756z"/>
</svg>
