<svg xmlns="http://www.w3.org/2000/svg" width="40" height="40" viewBox="0 0 40 40">
    <g fill="none" fill-rule="nonzero" transform="translate(2 1)">
        <path fill="#949FA3" d="M36.979 6.904a.786.786 0 0 0-.517-.565l-4.35-1.45-1.45-4.35A.788.788 0 0 0 29.358.23l-4.723 4.723a.787.787 0 0 0-.19.806l1.574 4.723a.845.845 0 0 0 .498.498l4.723 1.574a.788.788 0 0 0 .806-.19l4.723-4.723a.787.787 0 0 0 .21-.738z"/>
        <circle cx="14.957" cy="22.043" r="12.596" fill="#FFF"/>
        <path fill="#E86C60" d="M14.957 37C6.71 37 0 30.29 0 22.043 0 13.795 6.71 7.085 14.957 7.085c8.248 0 14.958 6.71 14.958 14.958C29.915 30.29 23.205 37 14.957 37zm0-26.766c-6.51 0-11.808 5.297-11.808 11.809 0 6.511 5.297 11.808 11.808 11.808 6.512 0 11.809-5.297 11.809-11.808 0-6.512-5.297-11.809-11.809-11.809z"/>
        <path fill="#E86C60" d="M14.957 31.49c-5.208 0-9.446-4.238-9.446-9.447 0-5.21 4.238-9.447 9.446-9.447 5.21 0 9.447 4.237 9.447 9.447 0 5.209-4.238 9.446-9.447 9.446zm0-15.745a6.305 6.305 0 0 0-6.297 6.298 6.305 6.305 0 0 0 6.297 6.297 6.305 6.305 0 0 0 6.298-6.297 6.305 6.305 0 0 0-6.298-6.298z"/>
        <circle cx="14.957" cy="22.043" r="3.149" fill="#E86C60"/>
        <path fill="#0A232C" d="M14.957 22.83a.787.787 0 0 1-.557-1.344l19.682-19.68a.787.787 0 1 1 1.113 1.112L15.514 22.6a.785.785 0 0 1-.557.23z"/>
    </g>
</svg>
