<svg xmlns="http://www.w3.org/2000/svg" width="40" height="40" viewBox="0 0 40 40">
    <g fill="none" fill-rule="nonzero">
        <path fill="#0A232C" d="M3.228 32.004a.777.777 0 0 0 0 1.1l4.668 4.668a.776.776 0 0 0 1.1 0L23.778 22.99l-5.768-5.768L3.228 32.004z"/>
        <path fill="#E6E6E6" d="M29.218 16.405l-4.623-4.623a.77.77 0 0 0-1.09 0l-5.394 5.394 5.713 5.713 5.394-5.394a.77.77 0 0 0 0-1.09z"/>
        <path fill="#D54D4D" d="M36.244 7.022a2.27 2.27 0 0 1-2.266-2.266.755.755 0 1 0-1.511 0A2.27 2.27 0 0 1 30.2 7.022a.755.755 0 1 0 0 1.511 2.27 2.27 0 0 1 2.267 2.267.755.755 0 1 0 1.51 0 2.27 2.27 0 0 1 2.267-2.267.755.755 0 1 0 0-1.51zM18.3 7.022a2.27 2.27 0 0 1-2.267-2.266.755.755 0 1 0-1.51 0 2.27 2.27 0 0 1-2.267 2.266.755.755 0 1 0 0 1.511 2.27 2.27 0 0 1 2.266 2.267.755.755 0 1 0 1.511 0A2.27 2.27 0 0 1 18.3 8.533a.755.755 0 1 0 0-1.51zM33.222 21.944a.755.755 0 0 0-.755.756 2.27 2.27 0 0 1-2.267 2.267.755.755 0 1 0 0 1.51 2.27 2.27 0 0 1 2.267 2.267.755.755 0 1 0 1.51 0 2.27 2.27 0 0 1 2.267-2.266.755.755 0 1 0 0-1.511 2.27 2.27 0 0 1-2.266-2.267.755.755 0 0 0-.756-.756z"/>
    </g>
</svg>
