<svg xmlns="http://www.w3.org/2000/svg" width="40" height="40" viewBox="0 0 40 40">
    <g fill="none" fill-rule="nonzero">
        <path fill="#394F57" d="M3.6 36.6a.8.8 0 0 1-.36-1.52l6.4-3.2a.8.8 0 0 1 .717 1.432l-6.4 3.2a.805.805 0 0 1-.357.088zM37.2 36.6a.806.806 0 0 1-.358-.08l-6.4-3.2a.801.801 0 1 1 .72-1.432l6.4 3.2A.8.8 0 0 1 37.2 36.6zM20.4 11a.8.8 0 0 1-.8-.8V3.8a.8.8 0 1 1 1.6 0v6.4a.8.8 0 0 1-.8.8z"/>
        <path fill="#CB2121" d="M9.2 14.2v18.4c0 2.691 4.92 4.8 11.2 4.8 6.28 0 11.2-2.109 11.2-4.8V14.2H9.2z"/>
        <path fill="#E59090" d="M20.4 19c-6.28 0-11.2-2.109-11.2-4.8s4.92-4.8 11.2-4.8c6.28 0 11.2 2.109 11.2 4.8S26.68 19 20.4 19z"/>
    </g>
</svg>
