<svg xmlns="http://www.w3.org/2000/svg" width="40" height="40" viewBox="0 0 40 40">
    <path fill="#D54D4D" fill-rule="nonzero" d="M27.604 5c-3.961 0-7.283 2.85-8.161 6.667h-2.818a.644.644 0 0 0-.578.368.684.684 0 0 0 .061.698l3.1 4.267.775 1.066a.639.639 0 0 0 .517.267.639.639 0 0 0 .517-.267L21.79 17l3.1-4.267a.684.684 0 0 0 .062-.698.644.644 0 0 0-.578-.368h-2.244c.8-2.327 2.948-4 5.473-4 3.205 0 5.813 2.691 5.813 6 0 3.308-2.608 6-5.813 6H13.396C8.766 19.667 5 23.555 5 28.333 5 33.112 8.767 37 13.396 37c3.961 0 7.283-2.85 8.161-6.667h2.818a.644.644 0 0 0 .578-.368.684.684 0 0 0-.061-.698L21.792 25l-.775-1.066c-.244-.336-.79-.336-1.034 0L19.21 25l-3.1 4.267a.684.684 0 0 0-.062.698c.11.226.333.368.578.368h2.244c-.8 2.327-2.948 4-5.473 4-3.205 0-5.813-2.691-5.813-6 0-3.308 2.608-6 5.813-6h14.208c4.63 0 8.396-3.888 8.396-8.666C36 8.888 32.233 5 27.604 5z"/>
</svg>
