<svg xmlns="http://www.w3.org/2000/svg" width="40" height="40" viewBox="0 0 40 40">
    <path fill="#D54D4D" fill-rule="nonzero" d="M29.108 12.345a.674.674 0 0 0-1.016 0l-4.725 5.69a.741.741 0 0 0-.106.763c.11.255.349.418.614.418h3.375v3.428c0 2.156-1.156 4.126-2.985 5.09l-2.415 1.273V12.102h3.375a.673.673 0 0 0 .614-.417.741.741 0 0 0-.106-.763l-4.725-5.69a.674.674 0 0 0-1.016 0l-4.725 5.69a.741.741 0 0 0-.106.763c.11.254.349.417.614.417h3.375v19.75l-2.415-1.272c-1.83-.964-2.985-2.935-2.985-5.09v-2.717h3.375a.673.673 0 0 0 .614-.418.741.741 0 0 0-.106-.762l-4.725-5.691a.674.674 0 0 0-1.016 0l-4.725 5.69a.741.741 0 0 0-.106.763c.11.254.35.418.614.418h3.375v2.717c0 3.234 1.734 6.19 4.478 7.636l3.622 1.908v1.255c0 .393.302.711.675.711h1.35c.373 0 .675-.318.675-.711v-4.101l3.622-1.908c2.744-1.446 4.478-4.402 4.478-7.635v-3.43h3.375a.673.673 0 0 0 .614-.417.741.741 0 0 0-.106-.762l-4.725-5.691z"/>
</svg>
