<svg xmlns="http://www.w3.org/2000/svg" width="40" height="40" viewBox="0 0 40 40">
    <g fill="none" fill-rule="nonzero">
        <path fill="#0A232C" d="M20 36c-8.271 0-15-6.729-15-15S11.729 6 20 6s15 6.729 15 15-6.729 15-15 15zm0-27C13.383 9 8 14.383 8 21s5.383 12 12 12 12-5.383 12-12S26.617 9 20 9z"/>
        <path fill="#E86C60" d="M20 12c-.553 0-1-.403-1-.9V3.9c0-.497.447-.9 1-.9.553 0 1 .403 1 .9v7.2c0 .497-.447.9-1 .9zM38.1 22h-7.2c-.497 0-.9-.448-.9-1s.403-1 .9-1h7.2c.497 0 .9.448.9 1s-.403 1-.9 1zM20 39c-.553 0-1-.403-1-.9v-7.2c0-.497.447-.9 1-.9.553 0 1 .403 1 .9v7.2c0 .497-.447.9-1 .9zM9.1 22H1.9c-.497 0-.9-.448-.9-1s.403-1 .9-1h7.2c.497 0 .9.448.9 1s-.403 1-.9 1zM20 23c-1.103 0-2-.897-2-2s.897-2 2-2 2 .897 2 2-.897 2-2 2z"/>
    </g>
</svg>
