<svg xmlns="http://www.w3.org/2000/svg" width="40" height="40" viewBox="0 0 40 40">
    <g fill="none" fill-rule="nonzero">
        <path fill="#0A232C" d="M34.609 6H5.39C4.623 6 4 6.623 4 7.391v26.435c0 .768.623 1.391 1.391 1.391H34.61c.768 0 1.391-.623 1.391-1.39V7.39C36 6.623 35.377 6 34.609 6z"/>
        <path fill="#FFF" d="M34.205 14.348l-2.645 4.629-3.513-1.907-.663 1.222 4.708 2.557 2.92-5.11H36v-1.391zM19.9 21.055l-2.932-2.199-2.56 5.12-4.133-7.577-2.949 5.16-1.647-1.646H4v1.391h1.103l2.527 2.528 2.617-4.579 4.215 7.727 3.005-6.01 2.634 1.975 3.781-4.36-1.05-.911z"/>
        <path fill="#CB2121" d="M28.348 17.826a2.776 2.776 0 0 0-2.087-2.684V6H24.87v9.142a2.776 2.776 0 0 0-2.087 2.684c0 1.295.889 2.374 2.087 2.684v14.707h1.39V20.51a2.776 2.776 0 0 0 2.088-2.684z"/>
    </g>
</svg>
