<svg xmlns="http://www.w3.org/2000/svg" width="19" height="20" viewBox="0 0 19 20">
    <g fill="none" fill-rule="nonzero" transform="translate(0 .762)">
        <path fill="#394F57" d="M9.5 0C6.92 0 6.597.011 5.583.057c-1.544.07-2.9.445-3.989 1.527C.506 2.665.127 4.012.057 5.546.011 6.553 0 6.874 0 9.437c0 2.563.011 2.884.057 3.89.07 1.534.448 2.882 1.537 3.963 1.089 1.082 2.445 1.458 3.99 1.528 1.013.045 1.336.056 3.916.056s2.903-.01 3.917-.056c1.543-.07 2.9-.446 3.989-1.528 1.088-1.081 1.467-2.428 1.537-3.962C18.989 12.32 19 12 19 9.438c0-2.564-.011-2.885-.057-3.892-.07-1.533-.448-2.88-1.537-3.962C16.317.503 14.96.127 13.416.057 12.404.01 12.08 0 9.5 0z"/>
        <path fill="#FFF" d="M9.5 4.28c1.691 0 1.891.006 2.56.036.72.033 1.389.176 1.903.687.515.511.66 1.176.692 1.892.03.663.037.862.037 2.542 0 1.68-.006 1.879-.037 2.542-.033.716-.177 1.38-.692 1.892-.514.511-1.183.655-1.904.687-.668.03-.868.037-2.559.037-1.691 0-1.891-.006-2.56-.037-.72-.032-1.389-.176-1.903-.687-.515-.511-.66-1.176-.692-1.892-.03-.663-.037-.862-.037-2.542 0-1.68.006-1.879.037-2.542.033-.716.177-1.38.692-1.892.514-.51 1.183-.654 1.904-.687.668-.03.868-.037 2.559-.037zm0-1.134c-1.72 0-1.936.007-2.611.037-1.03.047-1.934.298-2.66 1.018-.725.721-.977 1.62-1.024 2.642-.031.671-.038.886-.038 2.594 0 1.709.007 1.923.038 2.594.047 1.022.299 1.92 1.024 2.642.726.72 1.63.97 2.66 1.018.675.03.891.037 2.611.037 1.72 0 1.936-.007 2.611-.037 1.03-.047 1.934-.298 2.66-1.018.725-.721.977-1.62 1.024-2.642.031-.671.038-.885.038-2.594 0-1.708-.007-1.923-.038-2.594-.047-1.022-.299-1.92-1.024-2.642-.726-.72-1.63-.97-2.66-1.018-.675-.03-.891-.037-2.611-.037z"/>
        <path fill="#FFF" d="M9.5 6.206c-1.796 0-3.252 1.447-3.252 3.231 0 1.784 1.456 3.23 3.252 3.23 1.796 0 3.252-1.446 3.252-3.23s-1.456-3.23-3.252-3.23zm0 5.328a2.104 2.104 0 0 1-2.111-2.097c0-1.158.945-2.097 2.111-2.097 1.166 0 2.111.94 2.111 2.097A2.104 2.104 0 0 1 9.5 11.534z"/>
        <ellipse cx="12.881" cy="6.079" fill="#FFF" rx="1" ry="1"/>
    </g>
</svg>
