<svg xmlns="http://www.w3.org/2000/svg" width="19" height="20" viewBox="0 0 19 20">
    <path fill="#394F57" fill-rule="nonzero" d="M18.208.762H.792C.317.762 0 1.076 0 1.548v17.301c0 .472.317.787.792.787h17.416c.475 0 .792-.315.792-.787V1.548c0-.472-.317-.786-.792-.786zM5.621 16.883H2.85V7.84H5.7v9.044h-.08zM4.196 6.581c-.871 0-1.663-.708-1.663-1.651 0-.865.713-1.652 1.663-1.652.87 0 1.662.708 1.662 1.652 0 .943-.712 1.651-1.662 1.651zm12.033 10.302h-2.85V12.48c0-1.022 0-2.359-1.425-2.359-1.504 0-1.662 1.101-1.662 2.28v4.483h-2.85V7.84h2.691v1.259c.396-.708 1.267-1.416 2.692-1.416 2.85 0 3.404 1.888 3.404 4.325v4.876z"/>
</svg>
