<svg xmlns="http://www.w3.org/2000/svg" width="40" height="40" viewBox="0 0 40 40">
    <g fill="none" fill-rule="nonzero">
        <path fill="#394F57" d="M21.565 3h-3.13a.794.794 0 0 0-.783.805v3.22c0 .444.35.805.783.805h3.13c.433 0 .783-.36.783-.805v-3.22A.794.794 0 0 0 21.565 3z"/>
        <path fill="#EFEFEF" d="M34.087 6.22H5.913a.794.794 0 0 0-.783.805v22.539c0 .445.35.805.783.805.433 0 .783-.36.783-.805h26.608c0 .445.35.805.783.805.433 0 .783-.36.783-.805V7.024a.794.794 0 0 0-.783-.804z"/>
        <path fill="#72C472" d="M28.548 13.962a.794.794 0 0 0-.423-.435.764.764 0 0 0-.299-.062H23.13a.794.794 0 0 0-.782.805c0 .444.35.805.782.805h2.807L20 21.18l-4.142-4.26a.767.767 0 0 0-1.107 0l-3.13 3.22a.821.821 0 0 0 0 1.137.767.767 0 0 0 1.106 0l2.577-2.65 4.143 4.26a.77.77 0 0 0 1.106 0l6.49-6.675v2.886c0 .445.35.805.783.805.433 0 .783-.36.783-.805v-4.83c0-.104-.021-.209-.06-.307z"/>
        <path fill="#0A232C" d="M20 36.809a.794.794 0 0 1-.783-.805v-6.44c0-.445.35-.805.783-.805.433 0 .783.36.783.805v6.44c0 .444-.35.805-.783.805zM10.608 38.419a.767.767 0 0 1-.488-.177.821.821 0 0 1-.123-1.131l6.261-8.05a.77.77 0 0 1 1.1-.126.821.821 0 0 1 .123 1.132l-6.26 8.05a.774.774 0 0 1-.613.302zM29.392 38.419a.774.774 0 0 1-.612-.303l-6.261-8.05a.821.821 0 0 1 .122-1.13.769.769 0 0 1 1.1.125l6.262 8.05a.821.821 0 0 1-.123 1.131.767.767 0 0 1-.488.177z"/>
        <path fill="#394F57" d="M37.217 30.369H2.783A.794.794 0 0 1 2 29.564c0-.445.35-.805.783-.805h34.434c.433 0 .783.36.783.805 0 .445-.35.805-.783.805z"/>
    </g>
</svg>
