<svg xmlns="http://www.w3.org/2000/svg" width="40" height="40" viewBox="0 0 40 40">
    <g fill="none" fill-rule="nonzero" transform="translate(3 4)">
        <circle cx="14.926" cy="14.926" r="13.897" fill="#FFF"/>
        <path fill="#0A232C" d="M15.441 30.882C6.927 30.882 0 23.955 0 15.442 0 6.926 6.927 0 15.441 0c8.514 0 15.441 6.927 15.441 15.441 0 8.514-6.927 15.441-15.44 15.441zm0-27.794C8.63 3.088 3.088 8.63 3.088 15.441S8.63 27.794 15.441 27.794s12.353-5.542 12.353-12.353S22.252 3.088 15.441 3.088z"/>
        <path fill="#CB2121" d="M10.065 21.618A.8.8 0 0 1 9.5 20.25l5.605-5.605a.8.8 0 1 1 1.132 1.133l-5.605 5.604a.798.798 0 0 1-.566.235z"/>
        <path fill="#949FA3" d="M15.441 13.382c-.569 0-1.03-.345-1.03-.772V4.89c0-.427.461-.772 1.03-.772.57 0 1.03.345 1.03.772v7.72c0 .427-.46.772-1.03.772zM22.904 16.47h-7.72c-.427 0-.772-.46-.772-1.029 0-.568.345-1.03.772-1.03h7.72c.427 0 .772.462.772 1.03 0 .569-.345 1.03-.772 1.03z"/>
        <circle cx="15.441" cy="15.441" r="3.088" fill="#0A232C"/>
        <path fill="#000" d="M29.853 15.56c0-1.754-.31-3.431-.852-4.997a14.68 14.68 0 0 0-2.825-.269c-3.288 0-6.617 1.034-6.617 3.01v2.256c0 .269.066.519.181.752a1.688 1.688 0 0 0-.181.752v2.257c0 .27.066.519.181.753a1.688 1.688 0 0 0-.181.752v2.257c0 .268.066.518.181.752a1.688 1.688 0 0 0-.181.752v2.257c0 .269.066.518.181.752a1.688 1.688 0 0 0-.181.752v1.505h.155c5.878-1.971 10.139-7.63 10.139-14.293z" opacity=".1"/>
        <path fill="#D8BC48" d="M34.257 28.824H22.36c-.41 0-.743.345-.743.772v2.316c0 2.027 3.366 3.088 6.69 3.088C31.635 35 35 33.94 35 31.912v-2.316c0-.427-.333-.772-.743-.772z"/>
        <path fill="#EFD358" d="M28.309 26.765c-3.325 0-6.691 1.06-6.691 3.088 0 2.027 3.366 3.088 6.69 3.088 3.326 0 6.692-1.06 6.692-3.088 0-2.027-3.366-3.088-6.691-3.088z"/>
        <path fill="#D8BC48" d="M34.257 24.706H22.36c-.41 0-.743.346-.743.772v2.316c0 2.028 3.366 3.088 6.69 3.088 3.326 0 6.692-1.06 6.692-3.088v-2.316c0-.426-.333-.772-.743-.772z"/>
        <path fill="#EFD358" d="M28.309 22.647c-3.325 0-6.691 1.06-6.691 3.088s3.366 3.089 6.69 3.089c3.326 0 6.692-1.061 6.692-3.089 0-2.027-3.366-3.088-6.691-3.088z"/>
        <path fill="#D8BC48" d="M34.257 21.618H22.36c-.41 0-.743.345-.743.772v2.316c0 2.027 3.366 3.088 6.69 3.088 3.326 0 6.692-1.06 6.692-3.088V22.39c0-.427-.333-.772-.743-.772z"/>
        <path fill="#EFD358" d="M28.309 18.53c-3.325 0-6.691 1.06-6.691 3.088 0 2.027 3.366 3.088 6.69 3.088 3.326 0 6.692-1.06 6.692-3.088s-3.366-3.089-6.691-3.089z"/>
        <path fill="#D8BC48" d="M34.257 17.5H22.36c-.41 0-.743.346-.743.772v2.316c0 2.028 3.366 3.088 6.69 3.088 3.326 0 6.692-1.06 6.692-3.088v-2.316c0-.426-.333-.772-.743-.772z"/>
        <path fill="#EFD358" d="M28.309 15.441c-3.325 0-6.691 1.061-6.691 3.088 0 2.028 3.366 3.089 6.69 3.089 3.326 0 6.692-1.061 6.692-3.089 0-2.027-3.366-3.088-6.691-3.088z"/>
        <path fill="#D8BC48" d="M34.257 13.382H22.36c-.41 0-.743.346-.743.772v2.317c0 2.027 3.366 3.088 6.69 3.088 3.326 0 6.692-1.061 6.692-3.088v-2.317c0-.426-.333-.772-.743-.772z"/>
        <path fill="#EFD358" d="M28.309 11.324c-3.325 0-6.691 1.06-6.691 3.088 0 2.027 3.366 3.088 6.69 3.088 3.326 0 6.692-1.06 6.692-3.088s-3.366-3.088-6.691-3.088z"/>
    </g>
</svg>
