<svg xmlns="http://www.w3.org/2000/svg" width="40" height="40" viewBox="0 0 40 40">
    <g fill="none" fill-rule="nonzero">
        <path fill="#0A232C" d="M14.91 15v-3.75C14.91 8.355 17.192 6 20 6s5.09 2.355 5.09 5.25V15H28v-3.75C28 6.7 24.411 3 20 3s-8 3.7-8 8.25V15h2.91z"/>
        <path fill="#949FA3" d="M32.353 37H7.647C6.737 37 6 36.343 6 35.533V16.467C6 15.657 6.737 15 7.647 15h24.706c.91 0 1.647.657 1.647 1.467v19.066c0 .81-.737 1.467-1.647 1.467z"/>
        <path fill="#06151A" d="M23 23.857C23 22.28 21.657 21 20 21s-3 1.28-3 2.857c0 1.055.607 1.966 1.5 2.461V31h3v-4.682c.893-.495 1.5-1.406 1.5-2.46z"/>
    </g>
</svg>
