<svg xmlns="http://www.w3.org/2000/svg" width="20" height="19" viewBox="0 0 20 19">
    <path fill="#394F57" fill-rule="nonzero" d="M20 3.165c-.75.33-1.5.58-2.333.662.833-.497 1.5-1.325 1.833-2.235-.833.497-1.667.828-2.583.993a4.046 4.046 0 0 0-3-1.324c-2.25 0-4.084 1.821-4.084 4.056 0 .331 0 .662.084.91-3.5-.165-6.5-1.82-8.5-4.304C1 2.585.833 3.248.833 3.993c0 1.407.75 2.649 1.834 3.394C2 7.387 1.333 7.22.833 6.89v.083c0 1.986 1.417 3.642 3.25 3.973-.333.083-.666.166-1.083.166-.25 0-.5 0-.75-.083.5 1.656 2 2.815 3.833 2.815C4.667 14.92 2.917 15.582 1 15.582c-.333 0-.667 0-1-.083 1.833 1.16 4 1.821 6.25 1.821 7.583 0 11.667-6.208 11.667-11.589v-.497c.833-.58 1.5-1.324 2.083-2.07z"/>
</svg>
